<?xml version="1.0" standalone="no"?>
<!DOCTYPE svg PUBLIC "-//W3C//DTD SVG 20010904//EN"
 "http://www.w3.org/TR/2001/REC-SVG-20010904/DTD/svg10.dtd">
<svg version="1.0" xmlns="http://www.w3.org/2000/svg"
 width="150.000000pt" height="150.000000pt" viewBox="0 0 150.000000 150.000000"
 preserveAspectRatio="xMidYMid meet">

<g transform="translate(0.000000,150.000000) scale(0.100000,-0.100000)"
fill="#000000" stroke="none">
<path d="M325 1493 c-91 -19 -157 -69 -196 -148 -29 -59 -31 -71 -27 -134 8
-107 74 -200 166 -233 l32 -12 0 -149 c0 -238 -2 -237 318 -237 200 0 231 2
236 16 9 24 8 31 -10 48 -13 14 -48 16 -224 16 -176 0 -211 2 -224 16 -13 13
-16 43 -16 170 0 86 -4 163 -10 173 -5 10 -24 21 -42 25 -53 10 -104 51 -128
101 -60 124 27 265 163 265 61 0 103 -18 146 -64 19 -20 41 -36 48 -36 8 0 30
16 50 36 86 86 200 86 286 0 20 -20 42 -36 50 -36 7 0 28 16 47 35 44 46 88
65 147 65 136 0 223 -141 163 -265 -24 -50 -75 -91 -128 -101 -18 -4 -37 -15
-42 -25 -6 -10 -10 -87 -10 -173 0 -173 -5 -186 -64 -186 -39 0 -59 -19 -54
-52 3 -20 10 -23 53 -26 59 -4 104 16 128 58 14 23 17 56 17 177 l0 149 33 12
c91 33 157 126 165 233 4 63 2 75 -27 134 -48 96 -136 151 -241 148 -64 -2
-100 -14 -151 -49 l-37 -25 -43 29 c-90 61 -208 61 -296 2 l-45 -31 -37 25
c-54 38 -144 60 -196 49z"/>
<path d="M580 991 c-5 -11 -10 -56 -10 -101 0 -93 10 -120 45 -120 35 0 45 27
45 120 0 93 -10 120 -45 120 -14 0 -29 -8 -35 -19z"/>
<path d="M850 991 c-5 -11 -10 -56 -10 -101 0 -93 10 -120 45 -120 35 0 45 27
45 120 0 93 -10 120 -45 120 -14 0 -29 -8 -35 -19z"/>
<path d="M960 481 c-71 -15 -124 -49 -164 -105 -13 -19 -19 -19 -275 -4 -163
10 -273 13 -293 7 -130 -37 -130 -231 0 -268 20 -6 130 -3 293 7 256 15 262
15 275 -4 62 -88 151 -120 284 -103 78 10 187 53 228 92 85 79 80 222 -10 290
-89 67 -246 108 -338 88z m171 -97 c151 -44 203 -149 110 -224 -58 -45 -107
-62 -198 -68 -75 -4 -85 -3 -126 21 -26 16 -49 39 -57 57 -7 17 -20 35 -29 40
-10 5 -105 3 -231 -6 -291 -18 -349 -18 -372 3 -22 20 -23 51 -1 75 20 22 73
23 378 3 144 -9 223 -11 231 -4 6 5 17 22 23 37 7 16 31 40 53 55 50 32 132
36 219 11z"/>
</g>
</svg>
